<?xml version="1.0" encoding="UTF-8" standalone="no"?>
<!DOCTYPE svg PUBLIC "-//W3C//DTD SVG 1.1//EN" "http://www.w3.org/Graphics/SVG/1.1/DTD/svg11.dtd">
<svg width="100%" height="100%" viewBox="0 0 314 70" version="1.1" xmlns="http://www.w3.org/2000/svg" xmlns:xlink="http://www.w3.org/1999/xlink" xml:space="preserve" xmlns:serif="http://www.serif.com/" style="fill-rule:evenodd;clip-rule:evenodd;stroke-linejoin:round;stroke-miterlimit:2;">
    <g transform="matrix(1,0,0,1,-0.179259,-0.588462)">
        <rect id="Artboard1" x="0.179" y="0.588" width="313.488" height="69.072" style="fill:none;"/>
        <clipPath id="_clip1">
            <rect id="Artboard11" serif:id="Artboard1" x="0.179" y="0.588" width="313.488" height="69.072"/>
        </clipPath>
        <g clip-path="url(#_clip1)">
            <g transform="matrix(1,0,0,1,-331.821,-309)">
                <path d="M349.411,342.084L349.411,317.268L358.339,317.268L358.339,310.068L332.179,310.068L332.179,317.268L341.155,317.268L341.155,342.084L349.411,342.084Z" style="fill:white;fill-rule:nonzero;"/>
                <path d="M392.083,342.084L392.083,310.068L383.827,310.068L383.827,322.02L370.531,322.02L370.531,310.068L362.275,310.068L362.275,342.084L370.531,342.084L370.531,329.22L383.827,329.22L383.827,342.084L392.083,342.084Z" style="fill:white;fill-rule:nonzero;"/>
                <rect x="397.843" y="310.068" width="8.256" height="32.016" style="fill:white;fill-rule:nonzero;"/>
                <path d="M409.555,337.572C412.771,340.644 417.283,342.66 423.763,342.66C432.355,342.66 437.107,338.388 437.107,331.956C437.107,324.708 429.811,323.172 424.531,322.068C420.979,321.396 419.011,320.82 419.011,319.14C419.011,317.748 420.067,316.644 422.803,316.644C425.635,316.644 429.139,317.748 431.827,319.956L436.339,314.052C432.931,311.124 428.467,309.588 423.331,309.588C415.123,309.588 410.563,314.244 410.563,319.62C410.563,327.204 417.955,328.548 423.235,329.604C426.643,330.324 428.707,331.044 428.707,332.868C428.707,334.404 426.979,335.604 424.147,335.604C419.779,335.604 416.227,333.684 413.923,331.38L409.555,337.572Z" style="fill:white;fill-rule:nonzero;"/>
                <path d="M370.339,378.084L370.339,346.068L358.867,346.068L352.147,364.212L345.475,346.068L334.003,346.068L334.003,378.084L342.259,378.084L342.259,356.484L350.323,378.084L353.971,378.084L362.083,356.484L362.083,378.084L370.339,378.084Z" style="fill:white;fill-rule:nonzero;"/>
                <path d="M374.467,362.1C374.467,371.844 381.811,378.66 391.603,378.66C401.395,378.66 408.691,371.844 408.691,362.1C408.691,352.356 401.395,345.54 391.603,345.54C381.811,345.54 374.467,352.356 374.467,362.1ZM400.291,362.1C400.291,367.284 396.883,371.364 391.603,371.364C386.275,371.364 382.867,367.284 382.867,362.1C382.867,356.868 386.275,352.836 391.603,352.836C396.883,352.836 400.291,356.868 400.291,362.1Z" style="fill:white;fill-rule:nonzero;"/>
                <path d="M440.179,378.084L433.651,366.324C436.627,365.268 440.035,362.292 440.035,356.724C440.035,350.772 436.003,346.068 428.899,346.068L412.867,346.068L412.867,378.084L421.123,378.084L421.123,367.236L425.347,367.236L430.723,378.084L440.179,378.084ZM431.635,356.628C431.635,358.836 429.811,360.228 427.651,360.228L421.123,360.228L421.123,353.028L427.651,353.028C429.811,353.028 431.635,354.42 431.635,356.628Z" style="fill:white;fill-rule:nonzero;"/>
                <path d="M459.523,378.084L459.523,353.268L468.451,353.268L468.451,346.068L442.291,346.068L442.291,353.268L451.267,353.268L451.267,378.084L459.523,378.084Z" style="fill:white;fill-rule:nonzero;"/>
                <path d="M500.515,378.084L488.419,346.068L478.051,346.068L466.003,378.084L474.979,378.084L476.611,373.236L489.907,373.236L491.539,378.084L500.515,378.084ZM487.747,366.276L478.771,366.276L483.235,353.268L487.747,366.276Z" style="fill:white;fill-rule:nonzero;"/>
                <path d="M523.987,378.084L523.987,370.884L511.123,370.884L511.123,346.068L502.867,346.068L502.867,378.084L523.987,378.084Z" style="fill:white;fill-rule:nonzero;"/>
                <path d="M556.003,378.66C563.971,378.66 568.147,374.196 570.211,370.068L563.107,366.708C562.051,369.252 559.315,371.364 556.003,371.364C551.011,371.364 547.315,367.332 547.315,362.1C547.315,356.868 551.011,352.836 556.003,352.836C559.315,352.836 562.051,354.948 563.107,357.492L570.211,354.132C568.099,349.908 563.971,345.54 556.003,345.54C546.403,345.54 538.915,352.212 538.915,362.1C538.915,371.94 546.403,378.66 556.003,378.66Z" style="fill:white;fill-rule:nonzero;"/>
                <path d="M572.131,362.1C572.131,371.844 579.475,378.66 589.267,378.66C599.059,378.66 606.355,371.844 606.355,362.1C606.355,352.356 599.059,345.54 589.267,345.54C579.475,345.54 572.131,352.356 572.131,362.1ZM597.955,362.1C597.955,367.284 594.547,371.364 589.267,371.364C583.939,371.364 580.531,367.284 580.531,362.1C580.531,356.868 583.939,352.836 589.267,352.836C594.547,352.836 597.955,356.868 597.955,362.1Z" style="fill:white;fill-rule:nonzero;"/>
                <rect x="610.531" y="346.068" width="8.256" height="32.016" style="fill:white;fill-rule:nonzero;"/>
                <path d="M645.667,378.084L645.667,370.884L632.803,370.884L632.803,346.068L624.547,346.068L624.547,378.084L645.667,378.084Z" style="fill:white;fill-rule:nonzero;"/>
            </g>
        </g>
    </g>
</svg>
