<?xml version="1.0" encoding="UTF-8" standalone="no"?>
<!DOCTYPE svg PUBLIC "-//W3C//DTD SVG 1.1//EN" "http://www.w3.org/Graphics/SVG/1.1/DTD/svg11.dtd">
<svg width="100%" height="100%" viewBox="0 0 830 154" version="1.1" xmlns="http://www.w3.org/2000/svg" xmlns:xlink="http://www.w3.org/1999/xlink" xml:space="preserve" xmlns:serif="http://www.serif.com/" style="fill-rule:evenodd;clip-rule:evenodd;stroke-linejoin:round;stroke-miterlimit:2;">
    <g transform="matrix(1,0,0,1,-236.22,-372.441)">
        <rect id="Artboard1" x="236.22" y="372.441" width="829.771" height="153.608" style="fill:none;"/>
        <g id="Artboard11" serif:id="Artboard1">
            <g transform="matrix(1,0,0,1,75.2085,-85.0466)">
                <g transform="matrix(100,0,0,100,442.492,545.429)">
                </g>
                <g transform="matrix(100,0,0,100,458.282,545.429)">
                </g>
                <g transform="matrix(100,0,0,100,471.44,545.429)">
                </g>
                <g transform="matrix(100,0,0,100,487.229,545.429)">
                </g>
                <g transform="matrix(100,0,0,100,500.387,545.429)">
                </g>
                <g transform="matrix(100,0,0,100,513.545,545.429)">
                </g>
                <g transform="matrix(100,0,0,100,529.334,545.429)">
                </g>
                <g transform="matrix(100,0,0,100,542.492,545.429)">
                </g>
                <text x="442.492px" y="545.429px" style="font-family:'FontAwesome6Pro-Thin', 'Font Awesome 6 Pro';font-weight:100;font-size:100px;"></text>
            </g>
            <g transform="matrix(1,0,0,1,222.088,-85.0466)">
                <g transform="matrix(100,0,0,100,442.492,545.429)">
                </g>
                <g transform="matrix(100,0,0,100,456.778,545.429)">
                </g>
                <g transform="matrix(100,0,0,100,468.683,545.429)">
                </g>
                <g transform="matrix(100,0,0,100,482.968,545.429)">
                </g>
                <g transform="matrix(100,0,0,100,494.873,545.429)">
                </g>
                <g transform="matrix(100,0,0,100,506.778,545.429)">
                </g>
                <g transform="matrix(100,0,0,100,521.064,545.429)">
                </g>
                <g transform="matrix(100,0,0,100,530.588,545.429)">
                </g>
                <g transform="matrix(100,0,0,100,542.492,545.429)">
                </g>
                <text x="442.492px" y="545.429px" style="font-family:'FontAwesome6Pro-Thin', 'Font Awesome 6 Pro';font-weight:100;font-size:100px;"></text>
            </g>
            <g transform="matrix(1,0,0,1,368.968,-85.0466)">
                <g transform="matrix(100,0,0,100,442.492,545.429)">
                </g>
                <g transform="matrix(100,0,0,100,456.778,545.429)">
                </g>
                <g transform="matrix(100,0,0,100,468.683,545.429)">
                </g>
                <g transform="matrix(100,0,0,100,482.968,545.429)">
                </g>
                <g transform="matrix(100,0,0,100,494.873,545.429)">
                </g>
                <g transform="matrix(100,0,0,100,506.778,545.429)">
                </g>
                <g transform="matrix(100,0,0,100,521.064,545.429)">
                </g>
                <g transform="matrix(100,0,0,100,530.588,545.429)">
                </g>
                <g transform="matrix(100,0,0,100,542.492,545.429)">
                </g>
                <text x="442.492px" y="545.429px" style="font-family:'FontAwesome6Pro-Thin', 'Font Awesome 6 Pro';font-weight:100;font-size:100px;"></text>
            </g>
            <g transform="matrix(1,0,0,1,509.598,-85.0466)">
                <g transform="matrix(100,0,0,100,442.492,545.429)">
                </g>
                <g transform="matrix(100,0,0,100,456.446,545.429)">
                </g>
                <g transform="matrix(100,0,0,100,468.074,545.429)">
                </g>
                <g transform="matrix(100,0,0,100,482.027,545.429)">
                </g>
                <g transform="matrix(100,0,0,100,493.655,545.429)">
                </g>
                <g transform="matrix(100,0,0,100,505.283,545.429)">
                </g>
                <g transform="matrix(100,0,0,100,519.236,545.429)">
                </g>
                <g transform="matrix(100,0,0,100,530.864,545.429)">
                </g>
                <g transform="matrix(100,0,0,100,542.492,545.429)">
                </g>
                <text x="442.492px" y="545.429px" style="font-family:'FontAwesome6Pro-Thin', 'Font Awesome 6 Pro';font-weight:100;font-size:100px;"></text>
            </g>
            <g transform="matrix(1,0,0,1,-206.051,-85.0466)">
                <g transform="matrix(100,0,0,100,442.492,545.429)">
                </g>
                <g transform="matrix(100,0,0,100,457.877,545.429)">
                </g>
                <g transform="matrix(100,0,0,100,470.697,545.429)">
                </g>
                <g transform="matrix(100,0,0,100,486.082,545.429)">
                </g>
                <g transform="matrix(100,0,0,100,498.903,545.429)">
                </g>
                <g transform="matrix(100,0,0,100,511.723,545.429)">
                </g>
                <g transform="matrix(100,0,0,100,527.108,545.429)">
                </g>
                <g transform="matrix(100,0,0,100,542.492,545.429)">
                </g>
                <text x="442.492px" y="545.429px" style="font-family:'FontAwesome6Pro-Thin', 'Font Awesome 6 Pro';font-weight:100;font-size:100px;"></text>
            </g>
            <g transform="matrix(1,0,0,1,-59.1714,-85.0466)">
                <g transform="matrix(100,0,0,100,442.492,545.429)">
                </g>
                <g transform="matrix(100,0,0,100,456.308,545.429)">
                </g>
                <g transform="matrix(100,0,0,100,467.821,545.429)">
                </g>
                <g transform="matrix(100,0,0,100,481.637,545.429)">
                </g>
                <g transform="matrix(100,0,0,100,493.15,545.429)">
                </g>
                <g transform="matrix(100,0,0,100,504.663,545.429)">
                </g>
                <g transform="matrix(100,0,0,100,518.479,545.429)">
                </g>
                <g transform="matrix(100,0,0,100,529.992,545.429)">
                </g>
                <text x="442.492px" y="545.429px" style="font-family:'FontAwesome6Pro-Thin', 'Font Awesome 6 Pro';font-weight:100;font-size:100px;"></text>
            </g>
            <g transform="matrix(1,0,0,1,-3.29525,-15.8687)">
                <g transform="matrix(41.6667,0,0,41.6667,314.215,536.045)">
                </g>
                <text x="264.215px" y="536.045px" style="font-family:'SpotMono-Regular', 'Spot Mono', monospace;font-size:41.667px;">d4</text>
            </g>
            <g transform="matrix(1,0,0,1,137.876,-15.8687)">
                <g transform="matrix(41.6667,0,0,41.6667,314.215,536.045)">
                </g>
                <text x="264.215px" y="536.045px" style="font-family:'SpotMono-Regular', 'Spot Mono', monospace;font-size:41.667px;">d6</text>
            </g>
            <g transform="matrix(1,0,0,1,278.423,-15.9187)">
                <g transform="matrix(41.6667,0,0,41.6667,314.215,536.045)">
                </g>
                <text x="264.215px" y="536.045px" style="font-family:'SpotMono-Regular', 'Spot Mono', monospace;font-size:41.667px;">d8</text>
            </g>
            <g transform="matrix(1,0,0,1,412.865,-15.8687)">
                <g transform="matrix(41.6667,0,0,41.6667,339.215,536.045)">
                </g>
                <text x="264.215px" y="536.045px" style="font-family:'SpotMono-Regular', 'Spot Mono', monospace;font-size:41.667px;">d10</text>
            </g>
            <g transform="matrix(1,0,0,1,559.37,-15.8687)">
                <g transform="matrix(41.6667,0,0,41.6667,339.215,536.045)">
                </g>
                <text x="264.215px" y="536.045px" style="font-family:'SpotMono-Regular', 'Spot Mono', monospace;font-size:41.667px;">d12</text>
            </g>
            <g transform="matrix(1,0,0,1,700.375,-16.0187)">
                <g transform="matrix(41.6667,0,0,41.6667,339.215,536.045)">
                </g>
                <text x="264.215px" y="536.045px" style="font-family:'SpotMono-Regular', 'Spot Mono', monospace;font-size:41.667px;">d20</text>
            </g>
        </g>
    </g>
</svg>
